<svg 
          width="60" 
          height="60" fill="none" 
          xmlns="http://www.w3.org/2000/svg">
          <path d="M 21.666666666666668 0 C 18.552083373069763 0 15.968749672174454 2.40234375 15.229166348775228 5.648437589406967 C 15.145833014200132 5.648437589406967 15.083333334575096 5.625 15 5.625 C 11.322916746139526 5.625 8.333333333333334 8.988281339406967 8.333333333333334 13.125 C 8.333333333333334 13.687500022351742 8.395833012958368 14.23828125 8.510416348775228 14.765625 C 5.468749602635702 16.171875 3.3333333333333335 19.523437321186066 3.3333333333333335 23.4375 C 3.3333333333333335 24.914062544703484 3.666666597127915 26.28515549004078 4.197916587193808 27.527343034744263 C 1.6979165871938076 29.144530557096004 0 32.14453116059303 0 35.625 C 0 39.52734366059303 2.1250001589457193 42.87890553474426 5.145833492279053 44.28515553474426 C 5.05208349476258 44.82421802356839 5 45.37499997764826 5 45.9375 C 5 50.60156241059303 8.354166746139526 54.375 12.5 54.375 C 12.927083323399225 54.375 13.343749990065893 54.31640481809154 13.75 54.234373569488525 C 14.75000003973643 57.574217319488525 17.520833412806194 60 20.833333333333336 60 C 24.97916658719381 60 28.333333333333336 56.22656241059303 28.333333333333336 51.5625 L 28.333333333333336 7.5 C 28.333333333333336 3.363281339406967 25.34374992052714 0 21.666666666666668 0 Z M 60 35.625 C 60 32.14453116059303 58.30208460489909 29.144530557096004 55.80208460489909 27.527343034744263 C 56.34375125169755 26.28515549004078 56.66666666666667 24.914062544703484 56.66666666666667 23.4375 C 56.66666666666667 19.523437321186066 54.531248807907104 16.171875 51.48958206176758 14.765625 C 51.59374872843424 14.23828125 51.66666666666667 13.687500022351742 51.66666666666667 13.125 C 51.66666666666667 8.988281339406967 48.677083253860474 5.625 45 5.625 C 44.916666665424906 5.625 44.843748727192484 5.648437589406967 44.77083206176758 5.648437589406967 C 44.031248738368355 2.40234375 41.44791662693024 0 38.333333333333336 0 C 34.65625007947286 0 31.666666666666668 3.3515623211860657 31.666666666666668 7.5 L 31.666666666666668 51.5625 C 31.666666666666668 56.22656241059303 35.0208334128062 60 39.16666666666667 60 C 42.47916658719381 60 45.24999996026357 57.574217319488525 46.25 54.234373569488525 C 46.656250009934105 54.31640481809154 47.07291667660078 54.375 47.5 54.375 C 51.645833253860474 54.375 55 50.60156241059303 55 45.9375 C 55 45.37499997764826 54.94791412105163 44.82421802356839 54.854164123535156 44.28515553474426 C 57.87499745686849 42.87890553474426 60 39.52734366059303 60 35.625 Z" fill="rgb(255,255,255)"/>
        </svg>