<svg 
          width="30" 
          height="30" fill="none" 
          xmlns="http://www.w3.org/2000/svg">
          <path d="M 10.833333333333334 0 C 9.276041686534882 0 7.984374836087227 1.201171875 7.614583174387614 2.8242187947034836 C 7.572916507100066 2.8242187947034836 7.541666667287548 2.8125 7.5 2.8125 C 5.661458373069763 2.8125 4.166666666666667 4.494140669703484 4.166666666666667 6.5625 C 4.166666666666667 6.843750011175871 4.197916506479184 7.119140625 4.255208174387614 7.3828125 C 2.734374801317851 8.0859375 1.6666666666666667 9.761718660593033 1.6666666666666667 11.71875 C 1.6666666666666667 12.457031272351742 1.8333332985639574 13.14257774502039 2.098958293596904 13.763671517372131 C 0.8489582935969038 14.572265278548002 0 16.072265580296516 0 17.8125 C 0 19.763671830296516 1.0625000794728596 21.43945276737213 2.5729167461395264 22.14257776737213 C 2.52604174738129 22.412109011784196 2.5 22.68749998882413 2.5 22.96875 C 2.5 25.300781205296516 4.177083373069763 27.1875 6.25 27.1875 C 6.463541661699613 27.1875 6.671874995032947 27.15820240904577 6.875 27.117186784744263 C 7.375000019868215 28.787108659744263 8.760416706403097 30 10.416666666666668 30 C 12.489583293596905 30 14.166666666666668 28.113281205296516 14.166666666666668 25.78125 L 14.166666666666668 3.75 C 14.166666666666668 1.6816406697034836 12.67187496026357 0 10.833333333333334 0 Z M 30 17.8125 C 30 16.072265580296516 29.151042302449547 14.572265278548002 27.901042302449547 13.763671517372131 C 28.171875625848774 13.14257774502039 28.333333333333336 12.457031272351742 28.333333333333336 11.71875 C 28.333333333333336 9.761718660593033 27.265624403953552 8.0859375 25.74479103088379 7.3828125 C 25.79687436421712 7.119140625 25.833333333333336 6.843750011175871 25.833333333333336 6.5625 C 25.833333333333336 4.494140669703484 24.338541626930237 2.8125 22.5 2.8125 C 22.458333332712453 2.8125 22.421874363596242 2.8242187947034836 22.38541603088379 2.8242187947034836 C 22.015624369184177 1.201171875 20.72395831346512 0 19.166666666666668 0 C 17.32812503973643 0 15.833333333333334 1.6757811605930328 15.833333333333334 3.75 L 15.833333333333334 25.78125 C 15.833333333333334 28.113281205296516 17.5104167064031 30 19.583333333333336 30 C 21.239583293596905 30 22.624999980131786 28.787108659744263 23.125 27.117186784744263 C 23.328125004967053 27.15820240904577 23.53645833830039 27.1875 23.75 27.1875 C 25.822916626930237 27.1875 27.5 25.300781205296516 27.5 22.96875 C 27.5 22.68749998882413 27.473957060525816 22.412109011784196 27.427082061767578 22.14257776737213 C 28.937498728434246 21.43945276737213 30 19.763671830296516 30 17.8125 Z" fill="rgb(255,255,255)"/>
        </svg>